# xmcd
# 
# Track frame offsets:
#     150
#     19106
#     44773
#     84625
#     117228
#     144687
# 
# Disc length: 2274
# 
# Revision: 1
# Processed by: cddbd v1.5.2PL0 Copyright (c) Steve Scherf et al.
# Submitted via: fre:ac v1.0.31
# 
DISCID=5108e006
DTITLE=Deák Bill Gyula - '60 Live CD 01
DYEAR=2009
DGENRE=Blues
TTITLE0=Szökni jó
TTITLE1=Édes otthon
TTITLE2=Tetovált lány
TTITLE3=Rossz vér
TTITLE4=Zöld csillag
TTITLE5=Bill Kapitány Blues
EXTD=
EXTT0=
EXTT1=
EXTT2=
EXTT3=
EXTT4=
EXTT5=
PLAYORDER=
